<mxfile host="app.diagrams.net" modified="2022-12-25T08:14:54.203Z" agent="5.0 (X11)" version="20.7.4" etag="9C3vOxrTapx6tTFmjXlA" type="github">
  <diagram id="aoQH8I1DSkv4QJfjEjMY" name="Page-1">
    <mxGraphModel dx="1812" dy="1664" grid="1" gridSize="10" guides="1" tooltips="1" connect="1" arrows="1" fold="1" page="1" pageScale="1" pageWidth="850" pageHeight="1100" math="0" shadow="0">
      <root>
        <mxCell id="0" />
        <mxCell id="1" parent="0" />
        <mxCell id="lOUydIV1gNbsIhvsjzju-228" value="&lt;div&gt;&lt;u&gt;&lt;span&gt;&lt;span&gt;&lt;br&gt;&lt;/span&gt;&lt;/span&gt;&lt;/u&gt;&lt;/div&gt;&lt;div&gt;&lt;u&gt;&lt;span&gt;&lt;span&gt;World Organizations&lt;br&gt;&lt;/span&gt;&lt;/span&gt;&lt;/u&gt;&lt;/div&gt;" style="text;html=1;spacing=5;spacingTop=-20;whiteSpace=wrap;overflow=hidden;rounded=0;align=center;fontStyle=3;verticalAlign=middle;" vertex="1" parent="1">
          <mxGeometry x="200" width="480" height="60" as="geometry" />
        </mxCell>
        <mxCell id="lOUydIV1gNbsIhvsjzju-232" style="edgeStyle=orthogonalEdgeStyle;rounded=0;orthogonalLoop=1;jettySize=auto;html=1;exitX=0.25;exitY=1;exitDx=0;exitDy=0;fontSize=13;" edge="1" parent="1" source="lOUydIV1gNbsIhvsjzju-231">
          <mxGeometry relative="1" as="geometry">
            <mxPoint x="200" y="140" as="targetPoint" />
          </mxGeometry>
        </mxCell>
        <mxCell id="lOUydIV1gNbsIhvsjzju-235" style="edgeStyle=orthogonalEdgeStyle;rounded=0;orthogonalLoop=1;jettySize=auto;html=1;exitX=1;exitY=0.5;exitDx=0;exitDy=0;fontSize=13;" edge="1" parent="1" source="lOUydIV1gNbsIhvsjzju-231">
          <mxGeometry relative="1" as="geometry">
            <mxPoint x="490" y="100" as="targetPoint" />
          </mxGeometry>
        </mxCell>
        <mxCell id="lOUydIV1gNbsIhvsjzju-231" value="&lt;ul&gt;&lt;li&gt;&lt;i&gt;&lt;b&gt;RADB: base de datos de activos de enrutamiento;&lt;/b&gt;&lt;/i&gt;&lt;br&gt;&lt;/li&gt;&lt;/ul&gt;" style="text;html=1;strokeColor=none;fillColor=none;align=center;verticalAlign=middle;whiteSpace=wrap;rounded=0;fontSize=13;" vertex="1" parent="1">
          <mxGeometry y="80" width="350" height="40" as="geometry" />
        </mxCell>
        <mxCell id="lOUydIV1gNbsIhvsjzju-234" style="edgeStyle=orthogonalEdgeStyle;rounded=0;orthogonalLoop=1;jettySize=auto;html=1;exitX=1;exitY=0.5;exitDx=0;exitDy=0;fontSize=13;" edge="1" parent="1" source="lOUydIV1gNbsIhvsjzju-233">
          <mxGeometry relative="1" as="geometry">
            <mxPoint x="490" y="100" as="targetPoint" />
            <Array as="points">
              <mxPoint x="390" y="140" />
            </Array>
          </mxGeometry>
        </mxCell>
        <mxCell id="lOUydIV1gNbsIhvsjzju-233" value="&lt;i&gt;&lt;b&gt;Routing Assets Database&lt;br&gt;&lt;/b&gt;&lt;/i&gt;" style="rounded=1;whiteSpace=wrap;html=1;strokeColor=default;fontSize=13;fillColor=none;align=left;" vertex="1" parent="1">
          <mxGeometry x="200" y="120" width="160" height="40" as="geometry" />
        </mxCell>
        <mxCell id="lOUydIV1gNbsIhvsjzju-240" style="edgeStyle=orthogonalEdgeStyle;rounded=0;orthogonalLoop=1;jettySize=auto;html=1;fontSize=13;" edge="1" parent="1">
          <mxGeometry relative="1" as="geometry">
            <mxPoint x="625" y="100" as="targetPoint" />
            <mxPoint x="510" y="80" as="sourcePoint" />
            <Array as="points">
              <mxPoint x="510" y="85" />
              <mxPoint x="510" y="65" />
              <mxPoint x="625" y="65" />
            </Array>
          </mxGeometry>
        </mxCell>
        <mxCell id="lOUydIV1gNbsIhvsjzju-236" value="&lt;div align=&quot;left&quot;&gt;&lt;i&gt;&lt;b&gt;radb.net &lt;/b&gt;&lt;/i&gt;&lt;/div&gt;" style="text;html=1;strokeColor=none;fillColor=none;align=left;verticalAlign=middle;whiteSpace=wrap;rounded=0;fontSize=13;" vertex="1" parent="1">
          <mxGeometry x="490" y="85" width="70" height="30" as="geometry" />
        </mxCell>
        <mxCell id="lOUydIV1gNbsIhvsjzju-238" value="&lt;div align=&quot;left&quot;&gt;&lt;i&gt;&lt;b&gt;(redes)&lt;/b&gt;&lt;/i&gt;&lt;/div&gt;" style="text;html=1;strokeColor=none;fillColor=none;align=left;verticalAlign=middle;whiteSpace=wrap;rounded=0;fontSize=13;" vertex="1" parent="1">
          <mxGeometry x="600" y="100" width="60" height="30" as="geometry" />
        </mxCell>
        <mxCell id="lOUydIV1gNbsIhvsjzju-241" value="&lt;i&gt;&lt;b&gt;&lt;br&gt;&lt;/b&gt;&lt;/i&gt;&lt;ul&gt;&lt;li&gt;&lt;i&gt;&lt;b&gt;RIPE: ripe.net (redes)&amp;nbsp; &lt;/b&gt;&lt;/i&gt;&lt;/li&gt;&lt;/ul&gt;" style="text;html=1;strokeColor=none;fillColor=none;spacing=5;spacingTop=-20;whiteSpace=wrap;overflow=hidden;rounded=0;fontSize=13;" vertex="1" parent="1">
          <mxGeometry x="-5" y="30" width="360" height="50" as="geometry" />
        </mxCell>
        <mxCell id="lOUydIV1gNbsIhvsjzju-242" value="&lt;ul&gt;&lt;li&gt;&lt;i&gt;&lt;b&gt;RIR: Regional Internet Registry (redes)&lt;br&gt;&lt;/b&gt;&lt;/i&gt;&lt;/li&gt;&lt;/ul&gt;" style="text;html=1;strokeColor=none;fillColor=none;align=center;verticalAlign=middle;whiteSpace=wrap;rounded=0;fontSize=13;" vertex="1" parent="1">
          <mxGeometry x="-5" y="160" width="285" height="30" as="geometry" />
        </mxCell>
        <mxCell id="lOUydIV1gNbsIhvsjzju-243" value="&lt;ul&gt;&lt;li&gt;&lt;i&gt;&lt;b&gt;NRO: Number Resource Organization; nro.net (reina de redes)&lt;br&gt;&lt;/b&gt;&lt;/i&gt;&lt;/li&gt;&lt;/ul&gt;" style="text;html=1;align=center;verticalAlign=middle;whiteSpace=wrap;rounded=0;fontSize=13;" vertex="1" parent="1">
          <mxGeometry x="-5" y="190" width="430" height="30" as="geometry" />
        </mxCell>
        <mxCell id="lOUydIV1gNbsIhvsjzju-245" value="&lt;ul&gt;&lt;li&gt;&lt;i&gt;&lt;b&gt;LIR: Local Internet Registry (NRO)&lt;br&gt;&lt;/b&gt;&lt;/i&gt;&lt;/li&gt;&lt;/ul&gt;" style="text;html=1;align=center;verticalAlign=middle;whiteSpace=wrap;rounded=0;fontSize=13;" vertex="1" parent="1">
          <mxGeometry x="-5" y="220" width="260" height="30" as="geometry" />
        </mxCell>
        <mxCell id="lOUydIV1gNbsIhvsjzju-246" value="Map of regional Internet registries " style="text;html=1;align=center;verticalAlign=middle;whiteSpace=wrap;rounded=0;fontSize=13;fontColor=#FF0000;fontStyle=7" vertex="1" parent="1">
          <mxGeometry x="280" y="280" width="320" height="30" as="geometry" />
        </mxCell>
        <mxCell id="lOUydIV1gNbsIhvsjzju-249" value="&lt;font color=&quot;#009900&quot;&gt;ARIN&lt;br&gt;&lt;/font&gt;" style="text;html=1;strokeColor=none;fillColor=none;align=center;verticalAlign=middle;whiteSpace=wrap;rounded=0;fontSize=13;fontColor=#FF0000;fontStyle=3" vertex="1" parent="1">
          <mxGeometry x="40" y="310" width="120" height="30" as="geometry" />
        </mxCell>
        <mxCell id="lOUydIV1gNbsIhvsjzju-253" value="" style="endArrow=none;html=1;rounded=0;labelBackgroundColor=#000000;labelBorderColor=none;fontSize=13;fontColor=#FF0000;" edge="1" parent="1">
          <mxGeometry width="50" height="50" relative="1" as="geometry">
            <mxPoint x="40" y="440" as="sourcePoint" />
            <mxPoint x="100" y="380" as="targetPoint" />
          </mxGeometry>
        </mxCell>
        <mxCell id="lOUydIV1gNbsIhvsjzju-255" value="" style="endArrow=none;html=1;rounded=0;labelBackgroundColor=#000000;labelBorderColor=none;fontSize=13;fontColor=#FF0000;exitX=1;exitY=0;exitDx=0;exitDy=0;" edge="1" parent="1" source="lOUydIV1gNbsIhvsjzju-262">
          <mxGeometry width="50" height="50" relative="1" as="geometry">
            <mxPoint x="160" y="440" as="sourcePoint" />
            <mxPoint x="100" y="380" as="targetPoint" />
          </mxGeometry>
        </mxCell>
        <mxCell id="lOUydIV1gNbsIhvsjzju-258" value="" style="endArrow=classic;html=1;rounded=0;labelBackgroundColor=#000000;labelBorderColor=none;fontSize=13;fontColor=#FF0000;entryX=0.5;entryY=1;entryDx=0;entryDy=0;" edge="1" parent="1" target="lOUydIV1gNbsIhvsjzju-249">
          <mxGeometry width="50" height="50" relative="1" as="geometry">
            <mxPoint x="100" y="380" as="sourcePoint" />
            <mxPoint x="150" y="330" as="targetPoint" />
          </mxGeometry>
        </mxCell>
        <mxCell id="lOUydIV1gNbsIhvsjzju-261" value="" style="endArrow=none;html=1;rounded=0;labelBackgroundColor=#000000;labelBorderColor=none;fontSize=13;fontColor=#FF0000;" edge="1" parent="1" target="lOUydIV1gNbsIhvsjzju-262">
          <mxGeometry width="50" height="50" relative="1" as="geometry">
            <mxPoint x="160" y="480" as="sourcePoint" />
            <mxPoint x="160" y="440" as="targetPoint" />
          </mxGeometry>
        </mxCell>
        <mxCell id="lOUydIV1gNbsIhvsjzju-263" style="edgeStyle=orthogonalEdgeStyle;rounded=0;orthogonalLoop=1;jettySize=auto;html=1;exitX=1;exitY=0;exitDx=0;exitDy=0;labelBackgroundColor=#000000;labelBorderColor=none;fontSize=13;fontColor=#FF0000;" edge="1" parent="1" source="lOUydIV1gNbsIhvsjzju-262" target="lOUydIV1gNbsIhvsjzju-264">
          <mxGeometry relative="1" as="geometry">
            <mxPoint x="190" y="420" as="targetPoint" />
          </mxGeometry>
        </mxCell>
        <mxCell id="lOUydIV1gNbsIhvsjzju-265" style="edgeStyle=orthogonalEdgeStyle;rounded=0;orthogonalLoop=1;jettySize=auto;html=1;exitX=1;exitY=1;exitDx=0;exitDy=0;labelBackgroundColor=#000000;labelBorderColor=none;fontSize=13;fontColor=#FF0000;" edge="1" parent="1" source="lOUydIV1gNbsIhvsjzju-262" target="lOUydIV1gNbsIhvsjzju-266">
          <mxGeometry relative="1" as="geometry">
            <mxPoint x="200" y="550" as="targetPoint" />
          </mxGeometry>
        </mxCell>
        <mxCell id="lOUydIV1gNbsIhvsjzju-267" style="edgeStyle=orthogonalEdgeStyle;rounded=0;orthogonalLoop=1;jettySize=auto;html=1;exitX=0.5;exitY=1;exitDx=0;exitDy=0;labelBackgroundColor=#000000;labelBorderColor=none;fontSize=13;fontColor=#FF0000;" edge="1" parent="1" source="lOUydIV1gNbsIhvsjzju-262" target="lOUydIV1gNbsIhvsjzju-268">
          <mxGeometry relative="1" as="geometry">
            <mxPoint x="100" y="550" as="targetPoint" />
          </mxGeometry>
        </mxCell>
        <mxCell id="lOUydIV1gNbsIhvsjzju-262" value="&lt;u&gt;&lt;i&gt;&lt;b&gt;America&lt;/b&gt;&lt;/i&gt;&lt;/u&gt;" style="rounded=1;whiteSpace=wrap;html=1;strokeColor=default;fontSize=13;fontColor=#FF0000;fillColor=none;" vertex="1" parent="1">
          <mxGeometry x="40" y="440" width="120" height="60" as="geometry" />
        </mxCell>
        <mxCell id="lOUydIV1gNbsIhvsjzju-264" value="&lt;i&gt;&lt;b&gt;North&lt;/b&gt;&lt;/i&gt;" style="text;html=1;strokeColor=none;fillColor=none;align=center;verticalAlign=middle;whiteSpace=wrap;rounded=0;fontSize=13;fontColor=#FF0000;" vertex="1" parent="1">
          <mxGeometry x="170" y="360" width="60" height="30" as="geometry" />
        </mxCell>
        <mxCell id="lOUydIV1gNbsIhvsjzju-266" value="&lt;i&gt;&lt;b&gt;South &amp;amp; central&lt;/b&gt;&lt;/i&gt;" style="text;html=1;strokeColor=none;fillColor=none;align=center;verticalAlign=middle;whiteSpace=wrap;rounded=0;fontSize=13;fontColor=#FF0000;" vertex="1" parent="1">
          <mxGeometry x="170" y="550" width="60" height="40" as="geometry" />
        </mxCell>
        <mxCell id="lOUydIV1gNbsIhvsjzju-268" value="&lt;font color=&quot;#009900&quot;&gt;&lt;i&gt;&lt;b&gt;LACNIC&lt;/b&gt;&lt;/i&gt;&lt;/font&gt;" style="text;html=1;strokeColor=none;fillColor=none;align=center;verticalAlign=middle;whiteSpace=wrap;rounded=0;fontSize=13;fontColor=#FF0000;" vertex="1" parent="1">
          <mxGeometry x="50" y="560" width="100" height="30" as="geometry" />
        </mxCell>
        <mxCell id="lOUydIV1gNbsIhvsjzju-271" value="&lt;i&gt;&lt;b&gt;AFRINIC&lt;/b&gt;&lt;/i&gt;" style="text;html=1;strokeColor=none;fillColor=none;align=center;verticalAlign=middle;whiteSpace=wrap;rounded=0;labelBackgroundColor=none;labelBorderColor=none;fontSize=13;fontColor=#009900;" vertex="1" parent="1">
          <mxGeometry x="400" y="455" width="60" height="30" as="geometry" />
        </mxCell>
        <mxCell id="lOUydIV1gNbsIhvsjzju-272" value="" style="endArrow=none;html=1;rounded=0;labelBackgroundColor=#000000;labelBorderColor=none;fontSize=13;fontColor=#009900;exitX=0;exitY=0;exitDx=0;exitDy=0;entryX=0.5;entryY=1;entryDx=0;entryDy=0;" edge="1" parent="1" source="lOUydIV1gNbsIhvsjzju-278" target="lOUydIV1gNbsIhvsjzju-271">
          <mxGeometry width="50" height="50" relative="1" as="geometry">
            <mxPoint x="360" y="600" as="sourcePoint" />
            <mxPoint x="440" y="560" as="targetPoint" />
          </mxGeometry>
        </mxCell>
        <mxCell id="lOUydIV1gNbsIhvsjzju-274" value="" style="endArrow=none;html=1;rounded=0;labelBackgroundColor=#000000;labelBorderColor=none;fontSize=13;fontColor=#009900;exitX=1;exitY=0;exitDx=0;exitDy=0;entryX=0.5;entryY=1;entryDx=0;entryDy=0;" edge="1" parent="1" source="lOUydIV1gNbsIhvsjzju-278" target="lOUydIV1gNbsIhvsjzju-271">
          <mxGeometry width="50" height="50" relative="1" as="geometry">
            <mxPoint x="520" y="600" as="sourcePoint" />
            <mxPoint x="440" y="560" as="targetPoint" />
          </mxGeometry>
        </mxCell>
        <mxCell id="lOUydIV1gNbsIhvsjzju-278" value="&lt;font color=&quot;#CC0000&quot;&gt;&lt;u&gt;&lt;i&gt;&lt;b&gt;Africa&lt;/b&gt;&lt;/i&gt;&lt;/u&gt;&lt;/font&gt;" style="shape=partialRectangle;whiteSpace=wrap;html=1;bottom=1;right=1;left=1;top=0;fillColor=none;routingCenterX=-0.5;labelBackgroundColor=none;labelBorderColor=none;strokeColor=default;fontSize=13;fontColor=#009900;" vertex="1" parent="1">
          <mxGeometry x="380" y="520" width="100" height="40" as="geometry" />
        </mxCell>
        <mxCell id="lOUydIV1gNbsIhvsjzju-281" value="&lt;i&gt;&lt;b&gt;RIPE NCC&lt;/b&gt;&lt;/i&gt;" style="text;html=1;strokeColor=none;fillColor=none;align=center;verticalAlign=middle;whiteSpace=wrap;rounded=0;labelBackgroundColor=none;labelBorderColor=none;fontSize=13;fontColor=#009900;" vertex="1" parent="1">
          <mxGeometry x="420" y="310" width="70" height="30" as="geometry" />
        </mxCell>
        <mxCell id="lOUydIV1gNbsIhvsjzju-283" value="" style="curved=1;endArrow=classic;html=1;rounded=0;labelBackgroundColor=#000000;labelBorderColor=none;fontSize=13;fontColor=#009900;exitX=0.25;exitY=1;exitDx=0;exitDy=0;" edge="1" parent="1" source="lOUydIV1gNbsIhvsjzju-281" target="lOUydIV1gNbsIhvsjzju-284">
          <mxGeometry width="50" height="50" relative="1" as="geometry">
            <mxPoint x="460" y="500" as="sourcePoint" />
            <mxPoint x="490" y="410" as="targetPoint" />
            <Array as="points">
              <mxPoint x="500" y="350" />
              <mxPoint x="400" y="380" />
              <mxPoint x="430" y="420" />
              <mxPoint x="470" y="430" />
            </Array>
          </mxGeometry>
        </mxCell>
        <mxCell id="lOUydIV1gNbsIhvsjzju-284" value="&lt;font color=&quot;#FF0000&quot;&gt;&lt;u&gt;&lt;i&gt;&lt;b&gt;&amp;nbsp;The Netherlands Europe, The Middle East &amp;amp; parts of Central Asia&lt;/b&gt;&lt;/i&gt;&lt;/u&gt;&lt;/font&gt;" style="text;html=1;strokeColor=none;fillColor=none;align=left;verticalAlign=middle;whiteSpace=wrap;rounded=0;labelBackgroundColor=none;labelBorderColor=none;fontSize=13;fontColor=#009900;" vertex="1" parent="1">
          <mxGeometry x="470" y="360" width="310" height="50" as="geometry" />
        </mxCell>
        <mxCell id="lOUydIV1gNbsIhvsjzju-286" value="" style="rounded=1;whiteSpace=wrap;html=1;labelBackgroundColor=none;labelBorderColor=none;strokeColor=default;fontSize=13;fontColor=#FF0000;fillColor=none;arcSize=0;" vertex="1" parent="1">
          <mxGeometry x="470" y="365" width="290" height="40" as="geometry" />
        </mxCell>
        <mxCell id="lOUydIV1gNbsIhvsjzju-291" value="" style="endArrow=classic;html=1;rounded=0;labelBackgroundColor=#000000;labelBorderColor=none;fontSize=13;fontColor=#FF0000;exitX=0;exitY=0.25;exitDx=0;exitDy=0;" edge="1" parent="1" source="lOUydIV1gNbsIhvsjzju-246">
          <mxGeometry width="50" height="50" relative="1" as="geometry">
            <mxPoint x="270" y="410" as="sourcePoint" />
            <mxPoint x="40" y="360" as="targetPoint" />
            <Array as="points">
              <mxPoint y="288" />
            </Array>
          </mxGeometry>
        </mxCell>
        <mxCell id="lOUydIV1gNbsIhvsjzju-292" value="" style="endArrow=classic;html=1;rounded=0;labelBackgroundColor=#000000;labelBorderColor=none;fontSize=13;fontColor=#FF0000;exitX=1;exitY=0.25;exitDx=0;exitDy=0;" edge="1" parent="1" source="lOUydIV1gNbsIhvsjzju-246">
          <mxGeometry width="50" height="50" relative="1" as="geometry">
            <mxPoint x="710" y="470" as="sourcePoint" />
            <mxPoint x="800" y="360" as="targetPoint" />
            <Array as="points">
              <mxPoint x="840" y="290" />
            </Array>
          </mxGeometry>
        </mxCell>
        <mxCell id="lOUydIV1gNbsIhvsjzju-293" value="&lt;font color=&quot;#009900&quot;&gt;&lt;i&gt;&lt;b&gt;APNIC&lt;/b&gt;&lt;/i&gt;&lt;/font&gt;" style="text;html=1;strokeColor=none;fillColor=none;align=center;verticalAlign=middle;whiteSpace=wrap;rounded=0;labelBackgroundColor=none;labelBorderColor=none;fontSize=13;fontColor=#FF0000;" vertex="1" parent="1">
          <mxGeometry x="680" y="485" width="60" height="30" as="geometry" />
        </mxCell>
        <mxCell id="lOUydIV1gNbsIhvsjzju-294" value="" style="endArrow=classic;html=1;rounded=0;labelBackgroundColor=#000000;labelBorderColor=none;fontSize=13;fontColor=#009900;exitX=0;exitY=0.5;exitDx=0;exitDy=0;entryX=0;entryY=0.25;entryDx=0;entryDy=0;" edge="1" parent="1" source="lOUydIV1gNbsIhvsjzju-293" target="lOUydIV1gNbsIhvsjzju-295">
          <mxGeometry width="50" height="50" relative="1" as="geometry">
            <mxPoint x="580" y="610" as="sourcePoint" />
            <mxPoint x="660" y="560" as="targetPoint" />
            <Array as="points">
              <mxPoint x="640" y="520" />
            </Array>
          </mxGeometry>
        </mxCell>
        <mxCell id="lOUydIV1gNbsIhvsjzju-295" value="&lt;font color=&quot;#CC0000&quot;&gt;&lt;b&gt;&lt;i&gt;&lt;u&gt;Asia Pacific&lt;/u&gt;&lt;/i&gt;&lt;/b&gt;&lt;/font&gt;" style="rounded=1;whiteSpace=wrap;html=1;labelBackgroundColor=none;labelBorderColor=none;strokeColor=default;fontSize=13;fontColor=#009900;fillColor=none;" vertex="1" parent="1">
          <mxGeometry x="660" y="540" width="120" height="60" as="geometry" />
        </mxCell>
        <mxCell id="lOUydIV1gNbsIhvsjzju-296" value="" style="endArrow=none;dashed=1;html=1;dashPattern=1 3;strokeWidth=2;rounded=0;labelBackgroundColor=#000000;labelBorderColor=none;fontSize=13;fontColor=#CC0000;" edge="1" parent="1">
          <mxGeometry width="50" height="50" relative="1" as="geometry">
            <mxPoint x="20" y="640" as="sourcePoint" />
            <mxPoint x="560" y="640" as="targetPoint" />
            <Array as="points">
              <mxPoint x="230" y="640" />
            </Array>
          </mxGeometry>
        </mxCell>
        <mxCell id="lOUydIV1gNbsIhvsjzju-299" value="&lt;ul&gt;&lt;li&gt;&lt;i&gt;&lt;b&gt;America Registry for Internet Numbers&lt;/b&gt;&lt;/i&gt;&lt;/li&gt;&lt;/ul&gt;" style="text;html=1;strokeColor=none;fillColor=none;align=center;verticalAlign=middle;whiteSpace=wrap;rounded=0;labelBackgroundColor=none;labelBorderColor=none;fontSize=13;fontColor=#FFFFFF;" vertex="1" parent="1">
          <mxGeometry x="-30" y="650" width="310" height="30" as="geometry" />
        </mxCell>
        <mxCell id="lOUydIV1gNbsIhvsjzju-300" value="&lt;b&gt;&lt;i&gt;&lt;font color=&quot;#00CC00&quot;&gt;ARIN&lt;/font&gt;&lt;/i&gt;&lt;/b&gt;" style="endArrow=block;endSize=16;endFill=0;html=1;rounded=0;labelBackgroundColor=#000000;labelBorderColor=none;fontSize=13;fontColor=#FFFFFF;exitX=1;exitY=0.5;exitDx=0;exitDy=0;" edge="1" parent="1" source="lOUydIV1gNbsIhvsjzju-299" target="lOUydIV1gNbsIhvsjzju-301">
          <mxGeometry x="-0.0576" width="160" relative="1" as="geometry">
            <mxPoint x="290" y="664.41" as="sourcePoint" />
            <mxPoint x="450" y="664.41" as="targetPoint" />
            <Array as="points">
              <mxPoint x="360" y="680" />
            </Array>
            <mxPoint as="offset" />
          </mxGeometry>
        </mxCell>
        <mxCell id="lOUydIV1gNbsIhvsjzju-301" value="Located =&gt; USA" style="text;align=center;fontStyle=1;verticalAlign=middle;spacingLeft=3;spacingRight=3;strokeColor=none;rotatable=0;points=[[0,0.5],[1,0.5]];portConstraint=eastwest;labelBackgroundColor=none;labelBorderColor=none;fontSize=13;fontColor=#ffffff;fillColor=none;" vertex="1" parent="1">
          <mxGeometry x="410" y="650" width="110" height="26" as="geometry" />
        </mxCell>
        <mxCell id="lOUydIV1gNbsIhvsjzju-306" value="" style="endArrow=classic;html=1;rounded=0;labelBackgroundColor=#000000;labelBorderColor=none;fontSize=13;fontColor=#FFCCE6;" edge="1" parent="1" target="lOUydIV1gNbsIhvsjzju-308">
          <mxGeometry width="50" height="50" relative="1" as="geometry">
            <mxPoint x="360" y="680" as="sourcePoint" />
            <mxPoint x="90" y="720" as="targetPoint" />
            <Array as="points">
              <mxPoint x="440" y="710" />
            </Array>
          </mxGeometry>
        </mxCell>
        <mxCell id="lOUydIV1gNbsIhvsjzju-308" value="&lt;div&gt;&lt;b&gt;&lt;font color=&quot;#FFFFFF&quot;&gt;United Stated,Canada, many Caribbean &amp;amp;&lt;/font&gt;&lt;/b&gt;&lt;/div&gt;&lt;div&gt;&lt;b&gt;&lt;font color=&quot;#FFFFFF&quot;&gt;North Atlantic Islands&lt;br&gt;&lt;/font&gt;&lt;/b&gt;&lt;/div&gt;" style="rounded=0;whiteSpace=wrap;html=1;labelBackgroundColor=none;labelBorderColor=none;strokeColor=default;fontSize=13;fontColor=#FFCCE6;fillColor=none;" vertex="1" parent="1">
          <mxGeometry x="540" y="680" width="280" height="40" as="geometry" />
        </mxCell>
        <mxCell id="lOUydIV1gNbsIhvsjzju-311" value="&lt;b&gt;Latin America &amp;amp; The Caribbean&amp;nbsp; &lt;br&gt;&lt;/b&gt;" style="text;html=1;strokeColor=none;fillColor=none;align=center;verticalAlign=middle;whiteSpace=wrap;rounded=0;labelBackgroundColor=none;labelBorderColor=none;fontSize=13;fontColor=#FFFFFF;" vertex="1" parent="1">
          <mxGeometry x="550" y="840" width="280" height="30" as="geometry" />
        </mxCell>
        <mxCell id="lOUydIV1gNbsIhvsjzju-316" value="&lt;ul&gt;&lt;li&gt;&lt;i&gt;&lt;b&gt;Latin America and Caribbean Internet Addresses Registry&lt;/b&gt;&lt;/i&gt;&lt;/li&gt;&lt;/ul&gt;" style="text;html=1;strokeColor=none;fillColor=none;align=center;verticalAlign=middle;whiteSpace=wrap;rounded=0;labelBackgroundColor=none;labelBorderColor=none;fontSize=13;fontColor=#ffffff;" vertex="1" parent="1">
          <mxGeometry x="-20" y="730" width="410" height="30" as="geometry" />
        </mxCell>
        <mxCell id="lOUydIV1gNbsIhvsjzju-317" value="&lt;i&gt;&lt;b&gt;&lt;font color=&quot;#00CC00&quot;&gt;LACNIC&lt;/font&gt;&lt;/b&gt;&lt;/i&gt;" style="endArrow=block;endSize=16;endFill=0;html=1;rounded=0;labelBackgroundColor=#000000;labelBorderColor=none;fontSize=13;fontColor=#ffffff;" edge="1" parent="1">
          <mxGeometry x="-0.172" width="160" relative="1" as="geometry">
            <mxPoint x="390" y="760" as="sourcePoint" />
            <mxPoint x="570" y="780" as="targetPoint" />
            <Array as="points">
              <mxPoint x="430" y="780" />
              <mxPoint x="490" y="780" />
            </Array>
            <mxPoint as="offset" />
          </mxGeometry>
        </mxCell>
        <mxCell id="lOUydIV1gNbsIhvsjzju-318" value="" style="rounded=1;whiteSpace=wrap;html=1;labelBackgroundColor=none;labelBorderColor=none;strokeColor=default;fontSize=13;fontColor=#00CC00;fillColor=none;" vertex="1" parent="1">
          <mxGeometry x="557.5" y="837.5" width="245" height="35" as="geometry" />
        </mxCell>
        <mxCell id="lOUydIV1gNbsIhvsjzju-319" value="" style="endArrow=classic;html=1;rounded=0;labelBackgroundColor=#000000;labelBorderColor=none;fontSize=13;fontColor=#00CC00;entryX=0;entryY=0.5;entryDx=0;entryDy=0;" edge="1" parent="1" target="lOUydIV1gNbsIhvsjzju-318">
          <mxGeometry width="50" height="50" relative="1" as="geometry">
            <mxPoint x="490" y="780" as="sourcePoint" />
            <mxPoint x="400" y="660" as="targetPoint" />
          </mxGeometry>
        </mxCell>
        <mxCell id="lOUydIV1gNbsIhvsjzju-320" value="&lt;b&gt;Located =&amp;gt; Uruguay&lt;/b&gt;" style="text;html=1;strokeColor=none;fillColor=none;align=center;verticalAlign=middle;whiteSpace=wrap;rounded=0;labelBackgroundColor=none;labelBorderColor=none;fontSize=13;fontColor=#FFFFFF;" vertex="1" parent="1">
          <mxGeometry x="570" y="770" width="210" height="20" as="geometry" />
        </mxCell>
        <mxCell id="lOUydIV1gNbsIhvsjzju-321" value="&lt;ul&gt;&lt;li&gt;&lt;i&gt;&lt;b&gt;Africa Network coordination&lt;br&gt;&lt;/b&gt;&lt;/i&gt;&lt;/li&gt;&lt;/ul&gt;" style="text;html=1;strokeColor=none;fillColor=none;align=center;verticalAlign=middle;whiteSpace=wrap;rounded=0;labelBackgroundColor=none;labelBorderColor=none;fontSize=13;fontColor=#FFFFFF;" vertex="1" parent="1">
          <mxGeometry x="-20" y="837.5" width="230" height="30" as="geometry" />
        </mxCell>
        <mxCell id="lOUydIV1gNbsIhvsjzju-323" value="&lt;div&gt;&lt;font color=&quot;#00CC00&quot;&gt;&lt;i&gt;&lt;b&gt;AFRINIC&lt;/b&gt;&lt;/i&gt;&lt;/font&gt;&lt;/div&gt;" style="html=1;verticalAlign=bottom;endArrow=block;rounded=0;labelBackgroundColor=#000000;labelBorderColor=none;fontSize=13;fontColor=#FFFFFF;entryX=0;entryY=0.25;entryDx=0;entryDy=0;exitX=1;exitY=0.5;exitDx=0;exitDy=0;" edge="1" parent="1" source="lOUydIV1gNbsIhvsjzju-321" target="lOUydIV1gNbsIhvsjzju-324">
          <mxGeometry x="-0.0124" y="-14" width="80" relative="1" as="geometry">
            <mxPoint x="210" y="872.5" as="sourcePoint" />
            <mxPoint x="560" y="980" as="targetPoint" />
            <Array as="points">
              <mxPoint x="280" y="873" />
              <mxPoint x="430" y="873" />
            </Array>
            <mxPoint y="1" as="offset" />
          </mxGeometry>
        </mxCell>
        <mxCell id="lOUydIV1gNbsIhvsjzju-324" value="&lt;b&gt;&lt;font color=&quot;#FFFFFF&quot;&gt;Africa&lt;/font&gt;&lt;/b&gt;" style="rounded=1;whiteSpace=wrap;html=1;labelBackgroundColor=none;labelBorderColor=none;strokeColor=default;fontSize=13;fontColor=#00CC00;fillColor=none;" vertex="1" parent="1">
          <mxGeometry x="580" y="940" width="185" height="20" as="geometry" />
        </mxCell>
        <mxCell id="lOUydIV1gNbsIhvsjzju-330" value="" style="endArrow=block;endSize=16;endFill=0;html=1;rounded=0;labelBackgroundColor=#000000;labelBorderColor=none;fontSize=13;fontColor=#FFFFFF;" edge="1" parent="1">
          <mxGeometry width="160" relative="1" as="geometry">
            <mxPoint x="425" y="872.5" as="sourcePoint" />
            <mxPoint x="580" y="920" as="targetPoint" />
          </mxGeometry>
        </mxCell>
        <mxCell id="lOUydIV1gNbsIhvsjzju-331" value="Located =&gt; Mauritius" style="text;align=center;fontStyle=1;verticalAlign=middle;spacingLeft=3;spacingRight=3;strokeColor=none;rotatable=0;points=[[0,0.5],[1,0.5]];portConstraint=eastwest;labelBackgroundColor=none;labelBorderColor=none;fontSize=13;fontColor=#FFFFFF;fillColor=none;" vertex="1" parent="1">
          <mxGeometry x="585" y="910" width="175" height="26" as="geometry" />
        </mxCell>
        <mxCell id="lOUydIV1gNbsIhvsjzju-333" value="&lt;ul&gt;&lt;li&gt;&lt;i&gt;&lt;b&gt;Réseaux IP Européens Network Coordination Centre&lt;/b&gt;&lt;/i&gt;&lt;br&gt;&lt;/li&gt;&lt;/ul&gt;" style="text;html=1;strokeColor=none;fillColor=none;align=center;verticalAlign=middle;whiteSpace=wrap;rounded=0;labelBackgroundColor=none;labelBorderColor=none;fontSize=13;fontColor=#FFFFFF;" vertex="1" parent="1">
          <mxGeometry x="-25" y="930" width="385" height="30" as="geometry" />
        </mxCell>
        <mxCell id="lOUydIV1gNbsIhvsjzju-334" value="&lt;i&gt;&lt;b&gt;&lt;font color=&quot;#00CC00&quot;&gt;RIPE NCC&lt;br&gt;&lt;/font&gt;&lt;/b&gt;&lt;/i&gt;" style="endArrow=block;endSize=16;endFill=0;html=1;rounded=0;labelBackgroundColor=#000000;labelBorderColor=none;fontSize=13;fontColor=#FFFFFF;" edge="1" parent="1">
          <mxGeometry width="160" relative="1" as="geometry">
            <mxPoint x="360" y="944.41" as="sourcePoint" />
            <mxPoint x="525" y="1070" as="targetPoint" />
            <mxPoint as="offset" />
          </mxGeometry>
        </mxCell>
        <mxCell id="lOUydIV1gNbsIhvsjzju-336" value="Located =&amp;gt; The Netherlands (Países Bajos)" style="text;html=1;strokeColor=none;fillColor=none;align=center;verticalAlign=middle;whiteSpace=wrap;rounded=0;labelBackgroundColor=none;labelBorderColor=none;fontSize=13;fontColor=#FFFFFF;" vertex="1" parent="1">
          <mxGeometry x="530" y="1060" width="260" height="30" as="geometry" />
        </mxCell>
        <mxCell id="lOUydIV1gNbsIhvsjzju-337" value="" style="endArrow=classic;html=1;rounded=0;labelBackgroundColor=#000000;labelBorderColor=none;fontSize=13;fontColor=#FFFFFF;exitX=1;exitY=0.5;exitDx=0;exitDy=0;entryX=0;entryY=0.25;entryDx=0;entryDy=0;" edge="1" parent="1" source="lOUydIV1gNbsIhvsjzju-333" target="lOUydIV1gNbsIhvsjzju-339">
          <mxGeometry width="50" height="50" relative="1" as="geometry">
            <mxPoint x="370" y="960" as="sourcePoint" />
            <mxPoint x="540" y="1010" as="targetPoint" />
          </mxGeometry>
        </mxCell>
        <mxCell id="lOUydIV1gNbsIhvsjzju-339" value="Europe, The Middle East and parts of Central Asia" style="rounded=1;whiteSpace=wrap;html=1;labelBackgroundColor=none;labelBorderColor=none;strokeColor=default;fontSize=13;fontColor=#FFFFFF;fillColor=none;" vertex="1" parent="1">
          <mxGeometry x="530" y="990" width="300" height="60" as="geometry" />
        </mxCell>
        <mxCell id="lOUydIV1gNbsIhvsjzju-340" value="&lt;ul&gt;&lt;li&gt;&lt;i&gt;&lt;b&gt;Asia-Pacific Network Coordination Centre &lt;br&gt;&lt;/b&gt;&lt;/i&gt;&lt;/li&gt;&lt;/ul&gt;" style="text;html=1;strokeColor=none;fillColor=none;align=center;verticalAlign=middle;whiteSpace=wrap;rounded=0;labelBackgroundColor=none;labelBorderColor=none;fontSize=13;fontColor=#FFFFFF;" vertex="1" parent="1">
          <mxGeometry x="-25" y="1040" width="320" height="30" as="geometry" />
        </mxCell>
        <mxCell id="lOUydIV1gNbsIhvsjzju-341" value="&lt;font color=&quot;#00FF00&quot;&gt;&lt;i&gt;&lt;b&gt;APNIC&lt;/b&gt;&lt;/i&gt;&lt;/font&gt;" style="endArrow=block;endSize=16;endFill=0;html=1;rounded=0;labelBackgroundColor=#000000;labelBorderColor=none;fontSize=13;fontColor=#FFFFFF;exitX=1;exitY=0.75;exitDx=0;exitDy=0;entryX=0;entryY=0.5;entryDx=0;entryDy=0;" edge="1" parent="1" source="lOUydIV1gNbsIhvsjzju-340" target="lOUydIV1gNbsIhvsjzju-342">
          <mxGeometry width="160" relative="1" as="geometry">
            <mxPoint x="290" y="1080" as="sourcePoint" />
            <mxPoint x="480" y="1200" as="targetPoint" />
          </mxGeometry>
        </mxCell>
        <mxCell id="lOUydIV1gNbsIhvsjzju-342" value="Located =&gt; Australia" style="text;align=center;fontStyle=1;verticalAlign=middle;spacingLeft=3;spacingRight=3;strokeColor=none;rotatable=0;points=[[0,0.5],[1,0.5]];portConstraint=eastwest;labelBackgroundColor=none;labelBorderColor=none;fontSize=13;fontColor=#FFFFFF;fillColor=none;" vertex="1" parent="1">
          <mxGeometry x="517.5" y="1190" width="145" height="26" as="geometry" />
        </mxCell>
        <mxCell id="lOUydIV1gNbsIhvsjzju-343" value="" style="endArrow=classic;html=1;rounded=0;labelBackgroundColor=#000000;labelBorderColor=none;fontSize=13;fontColor=#FFFFFF;entryX=0;entryY=0.5;entryDx=0;entryDy=0;exitX=1;exitY=0.75;exitDx=0;exitDy=0;" edge="1" parent="1" source="lOUydIV1gNbsIhvsjzju-340" target="lOUydIV1gNbsIhvsjzju-344">
          <mxGeometry width="50" height="50" relative="1" as="geometry">
            <mxPoint x="290" y="1050" as="sourcePoint" />
            <mxPoint x="510" y="1140" as="targetPoint" />
          </mxGeometry>
        </mxCell>
        <mxCell id="lOUydIV1gNbsIhvsjzju-344" value="Asia Pacific " style="rounded=1;whiteSpace=wrap;html=1;labelBackgroundColor=none;labelBorderColor=none;strokeColor=default;fontSize=13;fontColor=#FFFFFF;fillColor=none;" vertex="1" parent="1">
          <mxGeometry x="517.5" y="1140" width="140" height="20" as="geometry" />
        </mxCell>
      </root>
    </mxGraphModel>
  </diagram>
</mxfile>
